<svg id="visual" viewBox="0 0 1920 1080" width="1920" height="1080" xmlns="http://www.w3.org/2000/svg" xmlns:xlink="http://www.w3.org/1999/xlink" version="1.1"><rect x="0" y="0" width="1920" height="1080" fill="#c0c5b8"></rect><path d="M0 513L45.7 527.7C91.3 542.3 182.7 571.7 274.2 586.3C365.7 601 457.3 601 548.8 562C640.3 523 731.7 445 823 431.7C914.3 418.3 1005.7 469.7 1097 483C1188.3 496.3 1279.7 471.7 1371.2 475.5C1462.7 479.3 1554.3 511.7 1645.8 519.8C1737.3 528 1828.7 512 1874.3 504L1920 496L1920 1081L1874.3 1081C1828.7 1081 1737.3 1081 1645.8 1081C1554.3 1081 1462.7 1081 1371.2 1081C1279.7 1081 1188.3 1081 1097 1081C1005.7 1081 914.3 1081 823 1081C731.7 1081 640.3 1081 548.8 1081C457.3 1081 365.7 1081 274.2 1081C182.7 1081 91.3 1081 45.7 1081L0 1081Z" fill="#758a76"></path><path d="M0 681L45.7 643.2C91.3 605.3 182.7 529.7 274.2 508.8C365.7 488 457.3 522 548.8 536.2C640.3 550.3 731.7 544.7 823 527.8C914.3 511 1005.7 483 1097 503.3C1188.3 523.7 1279.7 592.3 1371.2 617.3C1462.7 642.3 1554.3 623.7 1645.8 614C1737.3 604.3 1828.7 603.7 1874.3 603.3L1920 603L1920 1081L1874.3 1081C1828.7 1081 1737.3 1081 1645.8 1081C1554.3 1081 1462.7 1081 1371.2 1081C1279.7 1081 1188.3 1081 1097 1081C1005.7 1081 914.3 1081 823 1081C731.7 1081 640.3 1081 548.8 1081C457.3 1081 365.7 1081 274.2 1081C182.7 1081 91.3 1081 45.7 1081L0 1081Z" fill="#6e826f"></path><path d="M0 683L45.7 689.8C91.3 696.7 182.7 710.3 274.2 687.8C365.7 665.3 457.3 606.7 548.8 577.8C640.3 549 731.7 550 823 583C914.3 616 1005.7 681 1097 701.5C1188.3 722 1279.7 698 1371.2 683.7C1462.7 669.3 1554.3 664.7 1645.8 657.3C1737.3 650 1828.7 640 1874.3 635L1920 630L1920 1081L1874.3 1081C1828.7 1081 1737.3 1081 1645.8 1081C1554.3 1081 1462.7 1081 1371.2 1081C1279.7 1081 1188.3 1081 1097 1081C1005.7 1081 914.3 1081 823 1081C731.7 1081 640.3 1081 548.8 1081C457.3 1081 365.7 1081 274.2 1081C182.7 1081 91.3 1081 45.7 1081L0 1081Z" fill="#687b67"></path><path d="M0 791L45.7 791.7C91.3 792.3 182.7 793.7 274.2 778.7C365.7 763.7 457.3 732.3 548.8 719C640.3 705.7 731.7 710.3 823 716.3C914.3 722.3 1005.7 729.7 1097 745C1188.3 760.3 1279.7 783.7 1371.2 777.2C1462.7 770.7 1554.3 734.3 1645.8 730.2C1737.3 726 1828.7 754 1874.3 768L1920 782L1920 1081L1874.3 1081C1828.7 1081 1737.3 1081 1645.8 1081C1554.3 1081 1462.7 1081 1371.2 1081C1279.7 1081 1188.3 1081 1097 1081C1005.7 1081 914.3 1081 823 1081C731.7 1081 640.3 1081 548.8 1081C457.3 1081 365.7 1081 274.2 1081C182.7 1081 91.3 1081 45.7 1081L0 1081Z" fill="#617360"></path><path d="M0 870L45.7 871.3C91.3 872.7 182.7 875.3 274.2 855.8C365.7 836.3 457.3 794.7 548.8 788C640.3 781.3 731.7 809.7 823 813.8C914.3 818 1005.7 798 1097 787.2C1188.3 776.3 1279.7 774.7 1371.2 791.5C1462.7 808.3 1554.3 843.7 1645.8 859.3C1737.3 875 1828.7 871 1874.3 869L1920 867L1920 1081L1874.3 1081C1828.7 1081 1737.3 1081 1645.8 1081C1554.3 1081 1462.7 1081 1371.2 1081C1279.7 1081 1188.3 1081 1097 1081C1005.7 1081 914.3 1081 823 1081C731.7 1081 640.3 1081 548.8 1081C457.3 1081 365.7 1081 274.2 1081C182.7 1081 91.3 1081 45.7 1081L0 1081Z" fill="#5a6b59"></path><path d="M0 922L45.7 921.7C91.3 921.3 182.7 920.7 274.2 918.2C365.7 915.7 457.3 911.3 548.8 911.5C640.3 911.7 731.7 916.3 823 922.7C914.3 929 1005.7 937 1097 930.7C1188.3 924.3 1279.7 903.7 1371.2 900C1462.7 896.3 1554.3 909.7 1645.8 916.8C1737.3 924 1828.7 925 1874.3 925.5L1920 926L1920 1081L1874.3 1081C1828.7 1081 1737.3 1081 1645.8 1081C1554.3 1081 1462.7 1081 1371.2 1081C1279.7 1081 1188.3 1081 1097 1081C1005.7 1081 914.3 1081 823 1081C731.7 1081 640.3 1081 548.8 1081C457.3 1081 365.7 1081 274.2 1081C182.7 1081 91.3 1081 45.7 1081L0 1081Z" fill="#546452"></path><path d="M0 1009L45.7 999C91.3 989 182.7 969 274.2 957.2C365.7 945.3 457.3 941.7 548.8 940.7C640.3 939.7 731.7 941.3 823 943.7C914.3 946 1005.7 949 1097 953.5C1188.3 958 1279.7 964 1371.2 958.8C1462.7 953.7 1554.3 937.3 1645.8 935C1737.3 932.7 1828.7 944.3 1874.3 950.2L1920 956L1920 1081L1874.3 1081C1828.7 1081 1737.3 1081 1645.8 1081C1554.3 1081 1462.7 1081 1371.2 1081C1279.7 1081 1188.3 1081 1097 1081C1005.7 1081 914.3 1081 823 1081C731.7 1081 640.3 1081 548.8 1081C457.3 1081 365.7 1081 274.2 1081C182.7 1081 91.3 1081 45.7 1081L0 1081Z" fill="#4d5c4b"></path></svg>